# xmcd CD Database Entry
#
# Track frame offsets:
# 150
# 12005
# 22277
# 34475
# 45189
# 55872
# 69131
# 78944
# 86426
# 95191
# 101605
# 115266
# 124029
# 133623
# 137835
# 145767
# 155196
#
# Disc length: 2244 seconds
#
# Revision: 4
# Processed by: cddbd v1.4b42PL1 Copyright (c) Steve Scherf et al.
# Submitted via: tcd 2.0b
#
DISCID=e408c211
DTITLE=Richard Cheese - Lounge Against The Machine
DYEAR=1900
DGENRE=
TTITLE0=Nookie/Break Stuff (originally by Limp Bizkit)
TTITLE1=Guerilla Radio (originally by Rage Against The Machine)
TTITLE2=Come Out And Play (originally by Offspring)
TTITLE3=Closer (originally by Nine Inch Nails)
TTITLE4=Wrong Way (originally by Sublime)
TTITLE5=Bullet The Blue Sky (originally by U2)
TTITLE6=Creep (originally by Radiohead)
TTITLE7=Last Resort (originally by Papa Roach)
TTITLE8=Rape Me (originally by Nirvana)
TTITLE9=What's My Age Again (originally by Blink 182)
TTITLE10=Smack My Bitch Up (originally by Prodigy)
TTITLE11=Fight For Your Right (originally by Beastie Boys)
TTITLE12=Only Happy When It Rains (originally by Garbage)
TTITLE13=Suck My Kiss (originally by Red Hot Chili Peppers)
TTITLE14=Holiday In Cambodia (originally by Dead Kennedys)
TTITLE15=The Rockafeller Skank (originally by Fat Boy Slim)
TTITLE16=
EXTD=
EXTT0=
EXTT1=
EXTT2=
EXTT3=
EXTT4=
EXTT5=
EXTT6=
EXTT7=
EXTT8=
EXTT9=
EXTT10=
EXTT11=
EXTT12=
EXTT13=
EXTT14=
EXTT15=
EXTT16=
PLAYORDER=
